#extradata 0:       93, 0xc2a32e14
#extradata 1:        2, 0x00b200a1
#tb 0: 1/1000
#media_type 0: video
#codec_id 0: h264
#dimensions 0: 1280x718
#sar 0: 1/1
#tb 1: 1/1000
#media_type 1: audio
#codec_id 1: aac
#sample_rate 1: 48000
#channel_layout 1: 3
#channel_layout_name 1: stereo
0,          0,         42,       41,     2969, 0xa7016742
0,         42,         84,       41,      135, 0x33af1a9e, F=0x0
1,         42,         42,       21,        6, 0x027e00e8
1,         63,         63,       21,        6, 0x027e00e8
0,         84,        125,       41,     9196, 0x24d8439f
1,         84,         84,       21,        6, 0x027e00e8
1,        105,        105,       21,        6, 0x027e00e8
0,        125,        167,       41,     4926, 0xd7e2e492, F=0x0
1,        127,        127,       21,        6, 0x027e00e8
1,        148,        148,       21,       24, 0x886f0c1f
0,        167,        209,       41,    11069, 0x44839c66
1,        169,        169,       21,      550, 0xf863059c
1,        190,        190,       22,      596, 0x32d414c1
0,        209,        292,       41,     6143, 0xc25343dd, F=0x0
1,        213,        213,       21,      247, 0x2d0776c9
1,        234,        234,       21,      264, 0xf04a7b44
0,        251,        251,       41,     4197, 0x3b9f74ad, F=0x0
1,        255,        255,       21,      251, 0xc7628539
1,        276,        276,       22,      243, 0x99ef768b
0,        292,        376,       41,    17595, 0x1e502128, F=0x0
1,        298,        298,       21,      257, 0x233f7ccc
1,        319,        319,       21,      264, 0x7d9f7bd9
0,        334,        334,       41,      741, 0xe6b94afc, F=0x0
1,        340,        340,       21,      298, 0x51478f98
1,        361,        361,       22,      323, 0x419d9938
0,        376,        459,       41,    16138, 0xba72f2fe, F=0x0
1,        383,        383,       21,      309, 0x6219980c
1,        404,        404,       21,      325, 0x3fb3976f
0,        417,        417,       41,      322, 0xd6bf790f, F=0x0
1,        425,        425,       21,      325, 0xcd7a9fd6
1,        446,        446,       22,      359, 0x6edeb91c
1,        468,        468,       21,      333, 0xb8999fb7
1,        489,        489,       21,      317, 0xf2589e1a
1,        510,        510,       21,      319, 0x82ed9572
1,        531,        531,       22,      473, 0xea54e696
